<svg width="11" height="11" viewBox="0 0 11 11" fill="none" xmlns="http://www.w3.org/2000/svg">
<g clip-path="url(#clip0_201_12976)">
<path d="M5.78274 5.43579L4.95323 3.27927C4.94078 3.24691 4.91882 3.21908 4.89023 3.19945C4.86165 3.17982 4.82779 3.16931 4.79312 3.16931C4.75845 3.16931 4.72459 3.17982 4.696 3.19945C4.66742 3.21908 4.64546 3.24691 4.63301 3.27927L3.80349 5.43579C3.79488 5.45819 3.78165 5.47854 3.76468 5.49551C3.7477 5.51249 3.72736 5.52571 3.70495 5.53433L1.54844 6.36385C1.51607 6.37629 1.48824 6.39826 1.46861 6.42684C1.44898 6.45542 1.43848 6.48928 1.43848 6.52395C1.43848 6.55863 1.44898 6.59249 1.46861 6.62107C1.48824 6.64965 1.51607 6.67161 1.54844 6.68406L3.70495 7.51358C3.72736 7.5222 3.7477 7.53542 3.76468 7.55239C3.78165 7.56937 3.79488 7.58972 3.80349 7.61212L4.63301 9.76864C4.64546 9.801 4.66742 9.82883 4.696 9.84846C4.72459 9.86809 4.75845 9.8786 4.79312 9.8786C4.82779 9.8786 4.86165 9.86809 4.89023 9.84846C4.91882 9.82883 4.94078 9.801 4.95323 9.76864L5.78274 7.61212C5.79136 7.58972 5.80458 7.56937 5.82156 7.55239C5.83853 7.53542 5.85888 7.5222 5.88129 7.51358L8.0378 6.68406C8.07017 6.67161 8.09799 6.64965 8.11762 6.62107C8.13725 6.59249 8.14776 6.55863 8.14776 6.52395C8.14776 6.48928 8.13725 6.45542 8.11762 6.42684C8.09799 6.39826 8.07017 6.37629 8.0378 6.36385L5.88129 5.53433C5.85888 5.52571 5.83853 5.51249 5.82156 5.49551C5.80458 5.47854 5.79136 5.45819 5.78274 5.43579Z" stroke="black" stroke-width="0.609939" stroke-linecap="round" stroke-linejoin="round"/>
<path d="M2.88736 1.72076L2.50615 0.729614L2.12494 1.72076L1.13379 2.10198L2.12494 2.48319L2.50615 3.47434L2.88736 2.48319L3.87851 2.10198L2.88736 1.72076Z" stroke="black" stroke-width="0.609939" stroke-linecap="round" stroke-linejoin="round"/>
<path d="M8.96121 2.66107L8.45286 1.3396L7.94452 2.66107L6.62305 3.16942L7.94452 3.67776L8.45286 4.99923L8.96121 3.67776L10.2827 3.16942L8.96121 2.66107Z" stroke="black" stroke-width="0.609939" stroke-linecap="round" stroke-linejoin="round"/>
</g>
<defs>
<clipPath id="clip0_201_12976">
<rect width="9.75902" height="9.75902" fill="white" transform="translate(0.828613 0.424561)"/>
</clipPath>
</defs>
</svg>
