<svg width="15" height="15" viewBox="0 0 15 15" fill="none" xmlns="http://www.w3.org/2000/svg">
<g clip-path="url(#clip0_1442_927)">
<path d="M6.4748 1.82553L5.5898 3.26303C5.49865 3.39441 5.3606 3.48586 5.20407 3.51856C5.04754 3.55125 4.88443 3.5227 4.74831 3.43879C4.61219 3.35487 4.51341 3.22197 4.47229 3.06744C4.43118 2.9129 4.45087 2.74849 4.5273 2.60803L5.4123 1.17053C5.63423 0.816161 5.94256 0.524 6.30836 0.321473C6.67416 0.118946 7.08543 0.0126953 7.50355 0.0126953C7.92168 0.0126953 8.33294 0.118946 8.69874 0.321473C9.06454 0.524 9.37288 0.816161 9.5948 1.17053L12.2198 5.44178L12.4954 3.96365C12.5258 3.80063 12.6196 3.65633 12.7563 3.5625C12.8931 3.46868 13.0615 3.43301 13.2245 3.46334C13.3875 3.49367 13.5318 3.58753 13.6256 3.72425C13.7195 3.86098 13.7551 4.02938 13.7248 4.1924L13.4123 5.86115C13.3323 6.29074 13.1048 6.67891 12.7691 6.95861C12.4334 7.2383 12.0105 7.39196 11.5736 7.39303C11.4517 7.39303 9.56293 7.03303 9.56293 7.03303C9.40304 6.99828 9.26315 6.90221 9.17331 6.76546C9.08347 6.62871 9.05083 6.46218 9.08242 6.30164C9.114 6.14109 9.20729 5.99933 9.34224 5.90681C9.47719 5.81428 9.64304 5.77837 9.80418 5.80678L11.1373 6.0699L8.52855 1.82553C8.42009 1.65086 8.26886 1.50674 8.08918 1.40681C7.90949 1.30688 7.70728 1.25443 7.50168 1.25443C7.29607 1.25443 7.09386 1.30688 6.91418 1.40681C6.73449 1.50674 6.58327 1.65086 6.4748 1.82553V1.82553ZM14.6323 9.3624L14.0273 8.3799C13.9867 8.30531 13.9313 8.23977 13.8646 8.18729C13.7978 8.1348 13.7211 8.09647 13.639 8.07464C13.5569 8.05281 13.4713 8.04793 13.3873 8.0603C13.3032 8.07268 13.2226 8.10204 13.1503 8.14661C13.078 8.19117 13.0156 8.25 12.9668 8.3195C12.918 8.389 12.8839 8.46772 12.8665 8.55085C12.8492 8.63398 12.8489 8.71977 12.8658 8.803C12.8827 8.88622 12.9164 8.96513 12.9648 9.0349L13.5698 10.0174C13.6852 10.2022 13.7485 10.4148 13.753 10.6326C13.7575 10.8505 13.7031 11.0655 13.5954 11.2549C13.4919 11.4438 13.3391 11.6012 13.1534 11.7104C12.9677 11.8195 12.7559 11.8764 12.5404 11.8749H7.92418L8.71855 11.0818C8.83258 10.9641 8.89581 10.8063 8.89462 10.6424C8.89343 10.4785 8.82792 10.3217 8.7122 10.2056C8.59648 10.0896 8.43981 10.0236 8.27593 10.022C8.11206 10.0203 7.95409 10.0831 7.83605 10.1968L6.77855 11.2499C6.44852 11.5781 6.25949 12.022 6.25168 12.4874C6.25168 12.4874 6.25168 12.4937 6.25168 12.4962C6.25168 12.4987 6.25168 12.5043 6.25168 12.5087C6.24989 12.7491 6.29626 12.9876 6.38803 13.2099C6.4798 13.4322 6.61513 13.6338 6.78605 13.803L7.8373 14.8355C7.89523 14.8959 7.96468 14.944 8.04155 14.9771C8.11843 15.0101 8.20115 15.0274 8.28482 15.0278C8.36849 15.0283 8.4514 15.012 8.52864 14.9798C8.60587 14.9476 8.67586 14.9003 8.73446 14.8406C8.79306 14.7808 8.83906 14.7099 8.86975 14.6321C8.90044 14.5543 8.91519 14.4711 8.91313 14.3874C8.91106 14.3038 8.89222 14.2214 8.85772 14.1452C8.82323 14.0689 8.77378 14.0004 8.7123 13.9437L7.8823 13.1249H12.5404C12.9789 13.1234 13.409 13.0051 13.7866 12.7821C14.1641 12.5592 14.4755 12.2397 14.6885 11.8564C14.9016 11.4732 15.0087 11.0401 14.9988 10.6018C14.9889 10.1634 14.8624 9.73563 14.6323 9.3624V9.3624ZM4.23918 4.50803C4.03435 4.36854 3.80377 4.27128 3.56093 4.22191C3.31808 4.17255 3.06783 4.17208 2.8248 4.22053L1.18168 4.54428C1.09982 4.55871 1.02167 4.58932 0.951794 4.63432C0.881916 4.67932 0.821715 4.73781 0.774716 4.80636C0.727716 4.87491 0.694861 4.95215 0.678073 5.03355C0.661286 5.11495 0.660903 5.19888 0.676947 5.28043C0.692991 5.36199 0.72514 5.43952 0.771513 5.50849C0.817886 5.57747 0.87755 5.6365 0.947015 5.68214C1.01648 5.72778 1.09435 5.7591 1.17607 5.77428C1.25778 5.78945 1.34171 5.78818 1.42293 5.77053L2.74043 5.51115L0.371052 9.3624C0.140959 9.73558 0.0144485 10.1633 0.00453705 10.6016C-0.00537442 11.0399 0.101671 11.473 0.31466 11.8562C0.527649 12.2394 0.838889 12.5589 1.21636 12.7819C1.59383 13.0049 2.02389 13.1233 2.4623 13.1249H4.42668C4.59244 13.1249 4.75141 13.0591 4.86862 12.9418C4.98583 12.8246 5.05168 12.6657 5.05168 12.4999C5.05168 12.3341 4.98583 12.1752 4.86862 12.058C4.75141 11.9408 4.59244 11.8749 4.42668 11.8749H2.4623C2.24729 11.8759 2.036 11.8189 1.85074 11.7097C1.66548 11.6006 1.51314 11.4435 1.4098 11.2549C1.30214 11.0655 1.24769 10.8505 1.2522 10.6326C1.25671 10.4148 1.32002 10.2022 1.43543 10.0174L3.83418 6.11865L4.11293 7.6149C4.14343 7.77793 4.23744 7.92216 4.37428 8.01587C4.51113 8.10958 4.67959 8.14509 4.84261 8.11459C5.00564 8.08409 5.14987 7.99008 5.24358 7.85323C5.33729 7.71639 5.3728 7.54793 5.3423 7.3849L5.0298 5.71615C4.9849 5.47235 4.89185 5.23994 4.7561 5.03251C4.62035 4.82507 4.44462 4.64677 4.23918 4.50803V4.50803Z" fill="#32302C"/>
</g>
<defs>
<clipPath id="clip0_1442_927">
<rect width="15" height="15" fill="white"/>
</clipPath>
</defs>
</svg>
