<svg width="6" height="10" viewBox="0 0 6 10" fill="none" xmlns="http://www.w3.org/2000/svg">
<path d="M3.98473e-08 5.00278C9.92796e-09 5.23094 0.0859599 5.42014 0.269341 5.59822L4.68195 9.78854C4.83095 9.93322 5.0086 10 5.22063 10C5.65043 10 6 9.67168 6 9.25431C6 9.04841 5.90831 8.85921 5.75358 8.70896L1.83381 5.00835L5.75358 1.29661C5.90831 1.14636 6 0.962716 6 0.751252C6 0.33389 5.65043 8.6146e-08 5.22063 4.85717e-08C5.0086 3.00351e-08 4.83095 0.0723428 4.68195 0.217028L0.269341 4.40735C0.0802293 4.58542 6.97666e-08 4.77462 3.98473e-08 5.00278Z" fill="#91908F"/>
</svg>
