<svg width="15" height="15" viewBox="0 0 15 15" fill="none" xmlns="http://www.w3.org/2000/svg">
<g clip-path="url(#clip0_1230_777)">
<path d="M13.9825 2.3655C13.0476 1.83332 12.0192 1.48557 10.9531 1.34112C10.7917 1.03055 10.5671 0.757186 10.2937 0.538624C9.99934 0.304517 9.65551 0.140481 9.28832 0.0589424C8.92112 -0.0225963 8.54019 -0.0194991 8.17437 0.0679993C7.39249 0.265295 6.63415 0.546293 5.91249 0.906124C5.40019 0.66255 4.82798 0.573675 4.26593 0.650383C3.70388 0.727091 3.17641 0.966053 2.74812 1.338C2.51874 1.53487 2.28812 1.7405 2.06062 1.95237C1.82187 2.17675 1.57874 2.43175 1.33624 2.70862C1.03239 3.05601 0.815546 3.4707 0.703611 3.91843C0.591676 4.36617 0.587865 4.83412 0.692493 5.28362C0.740794 5.49581 0.812264 5.70205 0.905618 5.89862C0.543344 6.6254 0.260058 7.38893 0.0606175 8.17612C-0.0272561 8.54192 -0.0305416 8.92294 0.051011 9.2902C0.132564 9.65746 0.296806 10.0013 0.531243 10.2955C0.75208 10.5717 1.02901 10.798 1.34374 10.9592C1.48856 12.0237 1.83608 13.0506 2.36749 13.9842C2.57367 14.3546 2.89328 14.6491 3.27929 14.8242C3.66531 14.9994 4.09735 15.0461 4.51187 14.9574C4.94065 14.8725 5.33074 14.6518 5.62449 14.3282C5.91825 14.0045 6.10008 13.5949 6.14312 13.1599C6.25978 12.3553 6.47125 11.5673 6.77312 10.8124C6.77312 10.8124 7.11374 10.6024 7.26937 10.4755C7.64408 10.1612 7.91005 9.73667 8.02937 9.26237C8.31832 9.16671 8.58108 9.00516 8.79687 8.7905C9.00705 8.57657 9.16603 8.3178 9.26187 8.03362C9.73453 7.91371 10.1574 7.64802 10.4706 7.27425C10.5956 7.11862 10.8081 6.77737 10.8081 6.77737C11.5614 6.4674 12.3511 6.25465 13.1581 6.14425C13.5931 6.10121 14.0027 5.91938 14.3264 5.62562C14.6501 5.33187 14.8707 4.94178 14.9556 4.513C15.0458 4.098 14.9998 3.66499 14.8245 3.27818C14.6492 2.89136 14.354 2.57132 13.9825 2.3655V2.3655ZM4.89749 13.0205C4.88245 13.1929 4.81166 13.3557 4.69585 13.4842C4.58003 13.6128 4.42549 13.7001 4.25562 13.733C4.0993 13.7686 3.93562 13.7517 3.78981 13.6851C3.644 13.6185 3.52415 13.5057 3.44874 13.3642C3.07287 12.706 2.8035 11.9923 2.65062 11.2499H5.08812C5.15624 11.2499 5.22249 11.2361 5.28999 11.2324C5.11124 11.7842 4.89749 13.018 4.89749 13.0205ZM6.47874 9.50425C6.08633 9.8242 5.59569 9.99923 5.08937 9.99987H2.49812C2.308 10.0003 2.12029 9.95732 1.94928 9.87425C1.77826 9.79118 1.62845 9.67019 1.51124 9.5205C1.39433 9.37402 1.31234 9.20281 1.27152 9.0199C1.23069 8.83698 1.23209 8.64717 1.27562 8.46487C1.40074 7.96029 1.568 7.4671 1.77562 6.9905C1.96856 7.14149 2.17982 7.26749 2.40437 7.3655L6.57749 9.193C6.61624 9.21112 6.65749 9.218 6.69687 9.233C6.64094 9.33571 6.56706 9.42758 6.47874 9.50425V9.50425ZM7.90687 7.90925C7.80244 8.01514 7.66775 8.08606 7.52135 8.11225C7.37495 8.13845 7.22403 8.11862 7.08937 8.0555L2.90624 6.22362C2.65683 6.11435 2.43695 5.94737 2.26472 5.73646C2.09249 5.52554 1.97283 5.27672 1.91562 5.0105C1.85496 4.75244 1.85653 4.48365 1.92021 4.22632C1.9839 3.96899 2.10786 3.73049 2.28187 3.5305C2.49812 3.28425 2.71187 3.05925 2.92124 2.86237C3.13062 2.6655 3.34749 2.47175 3.56312 2.28737C3.76211 2.11419 3.99913 1.99035 4.25494 1.92592C4.51076 1.86149 4.77816 1.85828 5.03544 1.91654C5.29273 1.97481 5.53266 2.09291 5.73576 2.26126C5.93885 2.42962 6.0994 2.64348 6.20437 2.8855L8.05687 7.06675C8.11884 7.20611 8.13768 7.36083 8.11094 7.51098C8.08421 7.66114 8.01313 7.79985 7.90687 7.90925ZM9.99812 5.09112C9.9977 5.59737 9.82289 6.08803 9.50312 6.4805C9.43006 6.56511 9.34321 6.63675 9.24624 6.69237C9.22999 6.64862 9.21812 6.60362 9.19937 6.5605L7.34749 2.37987C7.25387 2.16762 7.13601 1.96691 6.99624 1.78175C7.47047 1.57465 7.96113 1.40741 8.46312 1.28175C8.6454 1.23813 8.83524 1.23668 9.01817 1.27751C9.2011 1.31834 9.37231 1.40038 9.51874 1.51737C9.66877 1.63484 9.78996 1.78506 9.87304 1.95653C9.95612 2.12801 9.99891 2.31621 9.99812 2.50675V5.09112ZM13.7312 4.25737C13.6984 4.42725 13.611 4.58179 13.4825 4.6976C13.3539 4.81342 13.1911 4.8842 13.0187 4.89925C13.0187 4.89925 11.7825 5.113 11.2306 5.293C11.235 5.2255 11.2481 5.15925 11.2481 5.09112V2.65362C11.9906 2.8065 12.7042 3.07587 13.3625 3.45175C13.5035 3.52734 13.6159 3.64701 13.6825 3.79249C13.7491 3.93797 13.7662 4.10125 13.7312 4.25737V4.25737Z" fill="#32302C"/>
</g>
<defs>
<clipPath id="clip0_1230_777">
<rect width="15" height="15" fill="white"/>
</clipPath>
</defs>
</svg>
