<svg width="10" height="6" viewBox="0 0 10 6" fill="none" xmlns="http://www.w3.org/2000/svg">
<path d="M5.00278 6C5.23094 6 5.42014 5.91404 5.59822 5.73066L9.78854 1.31805C9.93322 1.16905 10 0.991404 10 0.77937C10 0.34957 9.67168 -1.43515e-08 9.25431 -3.2595e-08C9.04841 -4.15951e-08 8.85921 0.0916905 8.70896 0.246418L5.00835 4.16619L1.29661 0.246418C1.14636 0.0916902 0.962716 -3.95032e-07 0.751252 -4.04276e-07C0.33389 -4.22519e-07 1.16706e-07 0.34957 1.16706e-07 0.779369C1.16706e-07 0.991404 0.0723429 1.16905 0.217028 1.31805L4.40735 5.73066C4.58542 5.91977 4.77462 6 5.00278 6Z" fill="#91908F"/>
</svg>
