<svg width="16" height="16" viewBox="0 0 16 16" fill="none" xmlns="http://www.w3.org/2000/svg">
<g clip-path="url(#clip0_1104_834)">
<path d="M6.50132 16.0003C6.3433 16.0011 6.1888 15.9537 6.05847 15.8644C5.92814 15.775 5.82817 15.648 5.77194 15.5003L4.52694 12.2628C4.50173 12.1976 4.46315 12.1384 4.4137 12.0889C4.36424 12.0394 4.30499 12.0009 4.23975 11.9756L1.00131 10.7297C0.853797 10.6731 0.726915 10.5731 0.637414 10.4429C0.547912 10.3126 0.5 10.1583 0.5 10.0003C0.5 9.84233 0.547912 9.68803 0.637414 9.55782C0.726915 9.4276 0.853797 9.32758 1.00131 9.27096L4.23882 8.02596C4.30405 8.00075 4.3633 7.96217 4.41276 7.91272C4.46221 7.86326 4.50079 7.80401 4.526 7.73878L5.77194 4.50034C5.82856 4.35282 5.92858 4.22594 6.05879 4.13644C6.18901 4.04694 6.34331 3.99902 6.50132 3.99902C6.65933 3.99902 6.81362 4.04694 6.94384 4.13644C7.07406 4.22594 7.17407 4.35282 7.23069 4.50034L8.47569 7.73784C8.50091 7.80308 8.53948 7.86232 8.58894 7.91178C8.63839 7.96124 8.69764 7.99981 8.76288 8.02503L11.9816 9.26346C12.1352 9.32037 12.2674 9.4232 12.3604 9.55796C12.4534 9.69272 12.5026 9.85286 12.5013 10.0166C12.4989 10.1718 12.45 10.3228 12.3609 10.45C12.2717 10.5771 12.1465 10.6746 12.0013 10.7297L8.76382 11.9747C8.69858 11.9999 8.63933 12.0385 8.58987 12.088C8.54042 12.1374 8.50184 12.1967 8.47663 12.2619L7.23069 15.5003C7.17446 15.648 7.0745 15.775 6.94416 15.8644C6.81383 15.9537 6.65933 16.0011 6.50132 16.0003Z" fill="#32302C"/>
<path d="M2.74994 5.49991C2.6573 5.49991 2.56684 5.47184 2.49047 5.4194C2.4141 5.36696 2.35541 5.29262 2.32213 5.20616L1.79525 3.83616C1.78383 3.8062 1.76621 3.77899 1.74354 3.75632C1.72086 3.73364 1.69365 3.71602 1.66369 3.7046L0.293691 3.17773C0.207247 3.14444 0.132915 3.08574 0.0804885 3.00937C0.0280618 2.933 0 2.84255 0 2.74991C0 2.65728 0.0280618 2.56682 0.0804885 2.49045C0.132915 2.41408 0.207247 2.35539 0.293691 2.3221L1.66369 1.79523C1.69362 1.78375 1.72081 1.76611 1.74347 1.74345C1.76614 1.72078 1.78378 1.6936 1.79525 1.66366L2.31744 0.305851C2.34689 0.225914 2.39757 0.155514 2.46402 0.102216C2.53048 0.0489189 2.6102 0.0147393 2.69463 0.00335107C2.79599 -0.00897073 2.89856 0.0128976 2.98608 0.0654883C3.0736 0.118079 3.14105 0.198382 3.17775 0.293664L3.70463 1.66366C3.7161 1.6936 3.73374 1.72078 3.75641 1.74345C3.77908 1.76611 3.80626 1.78375 3.83619 1.79523L5.20619 2.3221C5.29263 2.35539 5.36697 2.41408 5.41939 2.49045C5.47182 2.56682 5.49988 2.65728 5.49988 2.74991C5.49988 2.84255 5.47182 2.933 5.41939 3.00937C5.36697 3.08574 5.29263 3.14444 5.20619 3.17773L3.83619 3.7046C3.80623 3.71602 3.77902 3.73364 3.75635 3.75632C3.73367 3.77899 3.71605 3.8062 3.70463 3.83616L3.17775 5.20616C3.14447 5.29262 3.08578 5.36696 3.00941 5.4194C2.93304 5.47184 2.84258 5.49991 2.74994 5.49991Z" fill="#32302C"/>
<path d="M12.4996 8.00019C12.3985 8.00016 12.2999 7.9695 12.2166 7.91226C12.1333 7.85503 12.0693 7.7739 12.033 7.67956L11.3193 5.82425C11.3067 5.79156 11.2874 5.76187 11.2627 5.7371C11.2379 5.71234 11.2082 5.69306 11.1755 5.6805L9.32022 4.96675C9.22597 4.93043 9.14492 4.86641 9.08776 4.78313C9.0306 4.69984 9 4.6012 9 4.50019C9 4.39917 9.0306 4.30053 9.08776 4.21724C9.14492 4.13396 9.22597 4.06994 9.32022 4.03362L11.1755 3.31987C11.2082 3.30732 11.2379 3.28803 11.2627 3.26327C11.2874 3.23851 11.3067 3.20882 11.3193 3.17612L12.0277 1.33394C12.0601 1.24682 12.1154 1.1701 12.1879 1.11194C12.2604 1.05378 12.3472 1.01634 12.4393 1.00362C12.5499 0.990235 12.6618 1.01417 12.7573 1.07164C12.8527 1.1291 12.9262 1.2168 12.9662 1.32081L13.6799 3.17612C13.6925 3.20882 13.7118 3.23851 13.7365 3.26327C13.7613 3.28803 13.791 3.30732 13.8237 3.31987L15.679 4.03362C15.7732 4.06994 15.8543 4.13396 15.9114 4.21724C15.9686 4.30053 15.9992 4.39917 15.9992 4.50019C15.9992 4.6012 15.9686 4.69984 15.9114 4.78313C15.8543 4.86641 15.7732 4.93043 15.679 4.96675L13.8237 5.6805C13.791 5.69306 13.7613 5.71234 13.7365 5.7371C13.7118 5.76187 13.6925 5.79156 13.6799 5.82425L12.9662 7.67956C12.9299 7.7739 12.8659 7.85503 12.7826 7.91226C12.6993 7.9695 12.6007 8.00016 12.4996 8.00019Z" fill="#32302C"/>
</g>
<defs>
<clipPath id="clip0_1104_834">
<rect width="16" height="16" fill="white"/>
</clipPath>
</defs>
</svg>
