<svg width="15" height="15" viewBox="0 0 15 15" fill="none" xmlns="http://www.w3.org/2000/svg">
<g clip-path="url(#clip0_1360_882)">
<path d="M14.375 6.875H11.825C11.7763 6.53065 11.6863 6.19343 11.5569 5.87062L13.7612 4.59312C13.8349 4.55348 13.8999 4.49944 13.9523 4.43423C14.0047 4.36901 14.0435 4.29393 14.0663 4.21345C14.0892 4.13297 14.0956 4.04872 14.0853 3.96569C14.075 3.88267 14.0481 3.80256 14.0063 3.73012C13.9644 3.65767 13.9084 3.59437 13.8417 3.54396C13.7749 3.49355 13.6987 3.45705 13.6176 3.43664C13.5364 3.41623 13.452 3.41232 13.3693 3.42513C13.2867 3.43795 13.2074 3.46723 13.1362 3.51125L10.93 4.79062C10.7191 4.5242 10.4781 4.28302 10.2119 4.07187L11.4906 1.865C11.5676 1.72191 11.5859 1.55445 11.5415 1.39813C11.4971 1.24181 11.3936 1.10892 11.2529 1.02764C11.1122 0.946355 10.9454 0.923065 10.7878 0.962708C10.6302 1.00235 10.4942 1.10181 10.4087 1.24L9.12938 3.44312C8.80662 3.31358 8.46938 3.22355 8.125 3.175V0.625C8.125 0.45924 8.05915 0.300269 7.94194 0.183058C7.82473 0.065848 7.66576 0 7.5 0C7.33424 0 7.17527 0.065848 7.05806 0.183058C6.94085 0.300269 6.875 0.45924 6.875 0.625V3.175C6.53062 3.22355 6.19338 3.31358 5.87062 3.44312L4.59312 1.23875C4.50763 1.10056 4.37168 1.0011 4.2141 0.961458C4.05651 0.921815 3.88968 0.945105 3.74898 1.02639C3.60827 1.10767 3.50476 1.24056 3.46038 1.39688C3.416 1.5532 3.43425 1.72066 3.51125 1.86375L4.79 4.07187C4.52376 4.28302 4.28278 4.5242 4.07187 4.79062L1.86562 3.51125C1.79448 3.46723 1.71522 3.43795 1.63254 3.42513C1.54987 3.41232 1.46546 3.41623 1.38432 3.43664C1.30319 3.45705 1.22698 3.49355 1.16021 3.54396C1.09344 3.59437 1.03747 3.65767 0.995618 3.73012C0.953768 3.80256 0.926888 3.88267 0.916571 3.96569C0.906255 4.04872 0.912713 4.13297 0.935562 4.21345C0.958411 4.29393 0.997185 4.36901 1.04959 4.43423C1.10199 4.49944 1.16695 4.55348 1.24063 4.59312L3.44312 5.87062C3.31372 6.19343 3.22369 6.53065 3.175 6.875H0.625C0.45924 6.875 0.300269 6.94085 0.183058 7.05806C0.065848 7.17527 0 7.33424 0 7.5C0 7.66576 0.065848 7.82473 0.183058 7.94194C0.300269 8.05915 0.45924 8.125 0.625 8.125H3.175C3.22369 8.46935 3.31372 8.80657 3.44312 9.12938L1.23875 10.4069C1.16508 10.4465 1.10011 10.5006 1.04771 10.5658C0.99531 10.631 0.956536 10.7061 0.933687 10.7866C0.910838 10.867 0.90438 10.9513 0.914696 11.0343C0.925013 11.1173 0.951893 11.1974 0.993743 11.2699C1.03559 11.3423 1.09156 11.4056 1.15833 11.456C1.2251 11.5065 1.30131 11.5429 1.38245 11.5634C1.46358 11.5838 1.54799 11.5877 1.63067 11.5749C1.71334 11.5621 1.7926 11.5328 1.86375 11.4887L4.07 10.2094C4.28091 10.4758 4.52188 10.717 4.78812 10.9281L3.51125 13.135C3.43425 13.2781 3.416 13.4455 3.46038 13.6019C3.50476 13.7582 3.60827 13.8911 3.74898 13.9724C3.88968 14.0536 4.05651 14.0769 4.2141 14.0373C4.37168 13.9976 4.50763 13.8982 4.59312 13.76L5.87062 11.5556C6.19342 11.6853 6.53063 11.7758 6.875 11.825V14.375C6.875 14.5408 6.94085 14.6997 7.05806 14.8169C7.17527 14.9342 7.33424 15 7.5 15C7.66576 15 7.82473 14.9342 7.94194 14.8169C8.05915 14.6997 8.125 14.5408 8.125 14.375V11.825C8.46932 11.7762 8.80653 11.6862 9.12938 11.5569L10.4069 13.7612C10.4924 13.8994 10.6283 13.9989 10.7859 14.0385C10.9435 14.0782 11.1103 14.0549 11.251 13.9736C11.3917 13.8923 11.4952 13.7594 11.5396 13.6031C11.584 13.4468 11.5658 13.2793 11.4887 13.1362L10.21 10.9294C10.4762 10.7182 10.7172 10.4771 10.9281 10.2106L13.1344 11.49C13.2055 11.534 13.2848 11.5633 13.3675 11.5761C13.4501 11.5889 13.5345 11.585 13.6157 11.5646C13.6968 11.5442 13.773 11.5077 13.8398 11.4573C13.9066 11.4069 13.9625 11.3436 14.0044 11.2711C14.0462 11.1987 14.0731 11.1186 14.0834 11.0356C14.0937 10.9525 14.0873 10.8683 14.0644 10.7878C14.0416 10.7073 14.0028 10.6322 13.9504 10.567C13.898 10.5018 13.833 10.4478 13.7594 10.4081L11.555 9.13063C11.6851 8.80751 11.7758 8.46985 11.825 8.125H14.375C14.5408 8.125 14.6997 8.05915 14.8169 7.94194C14.9342 7.82473 15 7.66576 15 7.5C15 7.33424 14.9342 7.17527 14.8169 7.05806C14.6997 6.94085 14.5408 6.875 14.375 6.875ZM7.5 10.625C3.37 10.4938 3.37125 4.50563 7.5 4.375C11.63 4.50625 11.6287 10.4944 7.5 10.625Z" fill="#32302C"/>
</g>
<defs>
<clipPath id="clip0_1360_882">
<rect width="15" height="15" fill="white"/>
</clipPath>
</defs>
</svg>
