<svg width="15" height="15" viewBox="0 0 15 15" fill="none" xmlns="http://www.w3.org/2000/svg">
<g clip-path="url(#clip0_1230_787)">
<path d="M1.80355 4.27278C1.9056 4.27311 2.00618 4.24845 2.09649 4.20094C2.18681 4.15344 2.26412 4.08455 2.32168 4.00028C2.78631 3.3125 3.3831 2.724 4.0773 2.26903C4.14592 2.22389 4.20497 2.16567 4.25109 2.09771C4.29721 2.02975 4.32949 1.95336 4.34608 1.87293C4.36268 1.79249 4.36328 1.70957 4.34783 1.6289C4.33238 1.54823 4.3012 1.4714 4.25605 1.40278C4.21091 1.33416 4.1527 1.27511 4.08473 1.22899C4.01677 1.18288 3.94039 1.1506 3.85995 1.134C3.77951 1.1174 3.69659 1.11681 3.61592 1.13226C3.53525 1.1477 3.45842 1.17889 3.3898 1.22403C2.55852 1.76893 1.84384 2.47362 1.2873 3.29715C1.22367 3.39105 1.18679 3.5005 1.18061 3.61377C1.17444 3.72703 1.19921 3.83984 1.25226 3.9401C1.30531 4.04036 1.38465 4.12429 1.48177 4.1829C1.57889 4.2415 1.69012 4.27257 1.80355 4.27278Z" fill="#32302C"/>
<path d="M1.25031 7.49957C1.25019 7.0864 1.29059 6.67422 1.37093 6.26894C1.38832 6.18796 1.38945 6.10433 1.37424 6.02292C1.35903 5.9415 1.32778 5.86391 1.28233 5.79468C1.23687 5.72544 1.1781 5.66593 1.10944 5.6196C1.04078 5.57327 0.9636 5.54106 0.88238 5.52482C0.80116 5.50858 0.717523 5.50865 0.63633 5.52503C0.555138 5.5414 0.478009 5.57374 0.409427 5.62019C0.340845 5.66663 0.282178 5.72624 0.236836 5.79555C0.191494 5.86486 0.160381 5.9425 0.145307 6.02394C-0.0484356 6.99942 -0.0484356 8.00347 0.145307 8.97894C0.174123 9.12011 0.250829 9.24699 0.362444 9.33811C0.474058 9.42922 0.613725 9.47897 0.757807 9.47894C0.799763 9.47911 0.841633 9.47513 0.882807 9.46707C1.04533 9.4345 1.18827 9.33869 1.28016 9.20074C1.37205 9.06278 1.40538 8.89397 1.37281 8.73144C1.29171 8.32582 1.25068 7.91322 1.25031 7.49957Z" fill="#32302C"/>
<path d="M4.07871 12.7326C3.38436 12.2786 2.78734 11.6909 2.32246 11.0038C2.27637 10.9359 2.21735 10.8777 2.14877 10.8325C2.08019 10.7874 2.00338 10.7562 1.92274 10.7407C1.75987 10.7095 1.59127 10.7442 1.45402 10.8373C1.31677 10.9303 1.22212 11.0741 1.19088 11.237C1.15965 11.3999 1.19439 11.5685 1.28746 11.7057C1.84513 12.5292 2.56112 13.2335 3.39371 13.7776C3.53229 13.8687 3.7014 13.9011 3.86386 13.8676C4.02631 13.8341 4.16879 13.7374 4.25996 13.5988C4.35113 13.4603 4.38351 13.2911 4.34999 13.1287C4.31647 12.9662 4.21979 12.8237 4.08121 12.7326H4.07871Z" fill="#32302C"/>
<path d="M7.49943 0C7.0443 0.000775328 6.59017 0.0426116 6.14255 0.125C5.98892 0.152817 5.85127 0.237126 5.75668 0.361337C5.66208 0.485548 5.61741 0.640664 5.63144 0.796161C5.64547 0.951657 5.71718 1.09627 5.83248 1.20155C5.94778 1.30682 6.0983 1.36513 6.25443 1.365C6.29235 1.36472 6.33018 1.36138 6.36755 1.355C6.74089 1.2858 7.11974 1.25066 7.49943 1.25V13.75C7.11981 13.7502 6.74097 13.7159 6.36755 13.6475C6.20445 13.6177 6.03617 13.6538 5.89973 13.7481C5.7633 13.8423 5.66989 13.9869 5.64005 14.15C5.61022 14.3131 5.6464 14.4814 5.74063 14.6178C5.83487 14.7543 5.97945 14.8477 6.14255 14.8775C7.22421 15.0754 8.33614 15.0332 9.39968 14.7539C10.4632 14.4746 11.4524 13.965 12.2973 13.2613C13.1422 12.5575 13.8222 11.6767 14.2891 10.6811C14.756 9.68559 14.9985 8.59961 14.9994 7.5C14.9973 5.51154 14.2064 3.60513 12.8004 2.19907C11.3943 0.793018 9.48789 0.00215068 7.49943 0V0Z" fill="#32302C"/>
</g>
<defs>
<clipPath id="clip0_1230_787">
<rect width="15" height="15" fill="white"/>
</clipPath>
</defs>
</svg>
