<svg width="15" height="15" viewBox="0 0 15 15" fill="none" xmlns="http://www.w3.org/2000/svg">
<g clip-path="url(#clip0_1230_785)">
<path d="M11.25 3.75C9.3925 3.75 8.16063 5.14187 7.5 6.17625C6.83937 5.14187 5.6075 3.75 3.75 3.75C2.75544 3.75 1.80161 4.14509 1.09835 4.84835C0.395088 5.55161 0 6.50544 0 7.5C0 8.49456 0.395088 9.44839 1.09835 10.1517C1.80161 10.8549 2.75544 11.25 3.75 11.25C5.6075 11.25 6.83937 9.85813 7.5 8.82375C8.16063 9.85813 9.3925 11.25 11.25 11.25C12.2446 11.25 13.1984 10.8549 13.9017 10.1517C14.6049 9.44839 15 8.49456 15 7.5C15 6.50544 14.6049 5.55161 13.9017 4.84835C13.1984 4.14509 12.2446 3.75 11.25 3.75ZM3.75 10C3.08696 10 2.45107 9.73661 1.98223 9.26777C1.51339 8.79893 1.25 8.16304 1.25 7.5C1.25 6.83696 1.51339 6.20107 1.98223 5.73223C2.45107 5.26339 3.08696 5 3.75 5C5.43313 5 6.48875 6.84063 6.8125 7.5C6.49125 8.1625 5.4425 10 3.75 10ZM11.25 10C9.56687 10 8.51125 8.15937 8.1875 7.5C8.50938 6.83875 9.55812 5 11.25 5C11.913 5 12.5489 5.26339 13.0178 5.73223C13.4866 6.20107 13.75 6.83696 13.75 7.5C13.75 8.16304 13.4866 8.79893 13.0178 9.26777C12.5489 9.73661 11.913 10 11.25 10Z" fill="#32302C"/>
</g>
<defs>
<clipPath id="clip0_1230_785">
<rect width="15" height="15" fill="white"/>
</clipPath>
</defs>
</svg>
