<svg width="15" height="15" viewBox="0 0 15 15" fill="none" xmlns="http://www.w3.org/2000/svg">
<g clip-path="url(#clip0_1230_779)">
<path d="M3.74954 11.875C3.74954 12.0408 3.68369 12.1997 3.56648 12.3169C3.44927 12.4342 3.2903 12.5 3.12454 12.5C2.95878 12.5 2.79981 12.4342 2.6826 12.3169C2.56539 12.1997 2.49954 12.0408 2.49954 11.875C2.49954 11.7092 2.56539 11.5503 2.6826 11.4331C2.79981 11.3158 2.95878 11.25 3.12454 11.25C3.2903 11.25 3.44927 11.3158 3.56648 11.4331C3.68369 11.5503 3.74954 11.7092 3.74954 11.875V11.875ZM14.8308 4.76563C14.7017 5.0246 14.5028 5.24232 14.2565 5.39418C14.0102 5.54604 13.7264 5.626 13.437 5.625H10.6127C10.6002 6.28813 10.5733 6.91938 10.5195 7.5H10.7495C11.0012 7.49497 11.2508 7.54534 11.4808 7.64754C11.7108 7.74974 11.9155 7.90128 12.0804 8.0914C12.2453 8.28153 12.3664 8.5056 12.435 8.74772C12.5037 8.98985 12.5182 9.24412 12.4777 9.4925C12.4065 9.97893 12.1633 10.4237 11.7922 10.7462C11.4212 11.0687 10.9468 11.2474 10.4552 11.25H9.62454C8.49954 13.6806 4.99954 15 2.49142 15C2.15031 14.9988 1.81304 14.9279 1.50038 14.7915C1.18773 14.6551 0.906288 14.4561 0.67339 14.2069C0.440492 13.9577 0.261062 13.6634 0.146143 13.3422C0.0312245 13.0211 -0.016752 12.6798 0.00516655 12.3394C0.0385018 10.6779 0.464936 9.04802 1.24954 7.58313V7.25C1.25355 6.12607 1.6504 5.03892 2.3714 4.17673C3.09241 3.31453 4.09218 2.73157 5.19767 2.52875C5.47756 2.48095 5.76452 2.49495 6.03843 2.56977C6.31234 2.64459 6.56657 2.77842 6.78329 2.96188C7.00514 3.14827 7.18402 3.38046 7.30765 3.64251C7.43129 3.90456 7.49675 4.19026 7.49954 4.48C8.08079 4.42625 8.71267 4.39938 9.37454 4.38688V1.5625C9.37454 1.27233 9.45535 0.987883 9.6079 0.741046C9.76045 0.494208 9.97873 0.294728 10.2383 0.164958C10.4978 0.0351881 10.7884 -0.019745 11.0774 0.00631431C11.3664 0.0323736 11.6424 0.138396 11.8745 0.312501C12.4351 0.72034 12.8394 1.30763 13.0202 1.97688C13.6907 2.15781 14.279 2.56302 14.687 3.125C14.8614 3.35796 14.9672 3.63497 14.9926 3.92484C15.018 4.2147 14.962 4.5059 14.8308 4.76563V4.76563ZM2.74017 5.96313C3.79367 5.26098 4.99429 4.81002 6.24954 4.645V4.5C6.24954 4.38885 6.22521 4.27904 6.17824 4.1783C6.13127 4.07756 6.06281 3.98833 5.97767 3.91688C5.90162 3.85026 5.81165 3.80148 5.71432 3.77412C5.617 3.74676 5.51478 3.74151 5.41517 3.75875C4.81661 3.86318 4.25542 4.12122 3.78651 4.50763C3.31761 4.89403 2.95707 5.39556 2.74017 5.96313ZM5.48892 13.25C5.27448 12.3412 4.81098 11.5102 4.15045 10.8502C3.48992 10.1902 2.6585 9.72743 1.74954 9.51375C1.46874 10.4611 1.3009 11.4383 1.24954 12.425C1.23857 12.6019 1.26532 12.779 1.32803 12.9448C1.39074 13.1105 1.48796 13.261 1.61326 13.3863C1.73856 13.5116 1.88906 13.6088 2.05479 13.6715C2.22052 13.7342 2.39769 13.761 2.57454 13.75C3.56234 13.6991 4.54062 13.5312 5.48892 13.25V13.25ZM9.36954 5.63C5.47017 5.69688 3.34517 6.42 2.24454 8.35625C3.29701 8.64399 4.25631 9.20105 5.02789 9.97251C5.79946 10.744 6.35665 11.7032 6.64454 12.7556C8.57954 11.6538 9.30267 9.52938 9.36954 5.63ZM10.3545 8.75C10.2847 9.17143 10.1919 9.58872 10.0764 10H10.4552C10.6466 9.99906 10.8313 9.92958 10.9759 9.80414C11.1205 9.6787 11.2154 9.50561 11.2433 9.31625C11.2581 9.245 11.2563 9.17128 11.2379 9.10087C11.2194 9.03047 11.185 8.96528 11.1371 8.91043C11.0893 8.85557 11.0294 8.81254 10.9622 8.78471C10.8949 8.75688 10.8221 8.745 10.7495 8.75H10.3545ZM13.687 3.86813C13.5353 3.66149 13.3428 3.48828 13.1213 3.35926C12.8998 3.23023 12.6541 3.14815 12.3995 3.11813C12.2712 3.09663 12.1529 3.03564 12.0609 2.94366C11.9689 2.85168 11.9079 2.73329 11.8864 2.605C11.8565 2.35041 11.7744 2.10471 11.6454 1.88321C11.5164 1.66171 11.3431 1.46914 11.1364 1.3175C11.0892 1.28086 11.0326 1.25849 10.9731 1.25307C10.9136 1.24764 10.8538 1.25937 10.8008 1.28688C10.7477 1.31063 10.7028 1.34938 10.6715 1.39835C10.6402 1.44732 10.6239 1.50438 10.6245 1.5625V4.375H13.437C13.495 4.37667 13.5521 4.36142 13.6015 4.33112C13.6509 4.30081 13.6904 4.25677 13.7152 4.20438C13.7431 4.15151 13.7554 4.09173 13.7504 4.03213C13.7454 3.97253 13.7234 3.9156 13.687 3.86813V3.86813Z" fill="#32302C"/>
</g>
<defs>
<clipPath id="clip0_1230_779">
<rect width="15" height="15" fill="white"/>
</clipPath>
</defs>
</svg>
