<svg width="15" height="15" viewBox="0 0 15 15" fill="none" xmlns="http://www.w3.org/2000/svg">
<g clip-path="url(#clip0_1230_781)">
<path d="M7.50042 10.0001C6.83738 10.0001 6.20149 9.73671 5.73265 9.26787C5.26381 8.79903 5.00042 8.16315 5.00042 7.50011C5.00042 6.83707 5.26381 6.20118 5.73265 5.73234C6.20149 5.2635 6.83738 5.00011 7.50042 5.00011C8.16346 5.00011 8.79935 5.2635 9.26819 5.73234C9.73703 6.20118 10.0004 6.83707 10.0004 7.50011C10.0004 8.16315 9.73703 8.79903 9.26819 9.26787C8.79935 9.73671 8.16346 10.0001 7.50042 10.0001ZM7.50042 6.25011C7.1689 6.25011 6.85096 6.3818 6.61654 6.61622C6.38212 6.85064 6.25042 7.16859 6.25042 7.50011C6.25042 7.83163 6.38212 8.14957 6.61654 8.38399C6.85096 8.61841 7.1689 8.75011 7.50042 8.75011C7.83194 8.75011 8.14988 8.61841 8.3843 8.38399C8.61872 8.14957 8.75042 7.83163 8.75042 7.50011C8.75042 7.16859 8.61872 6.85064 8.3843 6.61622C8.14988 6.3818 7.83194 6.25011 7.50042 6.25011ZM7.50042 15.0001C6.81865 14.9994 6.15575 14.7761 5.61255 14.3641C5.06934 13.9521 4.67555 13.3739 4.49105 12.7176C3.83147 12.8633 3.14261 12.7945 2.52483 12.5213C1.90706 12.2482 1.39263 11.7849 1.05651 11.199C0.720383 10.6131 0.580116 9.93521 0.656141 9.26403C0.732166 8.59285 1.02051 7.96348 1.47917 7.46761C-0.645829 5.27323 1.4848 1.46761 4.50042 2.24948C4.69494 1.6052 5.0917 1.04067 5.632 0.639405C6.1723 0.238145 6.82742 0.0214844 7.50042 0.0214844C8.17342 0.0214844 8.82854 0.238145 9.36884 0.639405C9.90914 1.04067 10.3059 1.6052 10.5004 2.24948C13.5629 1.48948 15.6254 5.25761 13.5185 7.49448C15.6485 9.70573 13.5254 13.3957 10.5098 12.7176C10.3253 13.3739 9.9315 13.9521 9.38829 14.3641C8.84509 14.7761 8.18219 14.9994 7.50042 15.0001V15.0001ZM5.00042 11.2501C5.16618 11.2501 5.32515 11.316 5.44236 11.4332C5.55957 11.5504 5.62542 11.7093 5.62542 11.8751C5.62542 12.3724 5.82296 12.8493 6.1746 13.2009C6.52623 13.5526 7.00314 13.7501 7.50042 13.7501C7.9977 13.7501 8.47462 13.5526 8.82625 13.2009C9.17788 12.8493 9.37542 12.3724 9.37542 11.8751C9.37537 11.765 9.40441 11.6568 9.45959 11.5616C9.51477 11.4663 9.59415 11.3873 9.68968 11.3325C9.7852 11.2778 9.8935 11.2493 10.0036 11.2498C10.1137 11.2504 10.2217 11.28 10.3167 11.3357C12.4829 12.3826 14.3167 9.34698 12.2017 8.04886C12.1041 7.99427 12.0228 7.91465 11.9662 7.81819C11.9097 7.72173 11.8798 7.61193 11.8798 7.50011C11.8798 7.38828 11.9097 7.27848 11.9662 7.18203C12.0228 7.08557 12.1041 7.00594 12.2017 6.95136C14.2723 5.69573 12.5279 2.43948 10.3148 3.66761C10.2196 3.72298 10.1116 3.75224 10.0015 3.75243C9.89137 3.75261 9.78319 3.72372 9.68785 3.66866C9.59252 3.6136 9.51341 3.53434 9.45855 3.43889C9.40369 3.34344 9.37501 3.2352 9.37542 3.12511C9.37542 2.62783 9.17788 2.15091 8.82625 1.79928C8.47462 1.44765 7.9977 1.25011 7.50042 1.25011C7.00314 1.25011 6.52623 1.44765 6.1746 1.79928C5.82296 2.15091 5.62542 2.62783 5.62542 3.12511C5.62564 3.23492 5.59692 3.34286 5.54215 3.43804C5.48738 3.53322 5.40851 3.6123 5.31346 3.6673C5.21841 3.7223 5.11055 3.75129 5.00073 3.75134C4.89091 3.7514 4.78302 3.72251 4.68792 3.66761C2.50042 2.44261 0.711671 5.67511 2.79917 6.91886C2.89675 6.97353 2.978 7.05322 3.03455 7.14973C3.0911 7.24623 3.1209 7.35607 3.1209 7.46792C3.1209 7.57977 3.0911 7.6896 3.03455 7.78611C2.978 7.88262 2.89675 7.96231 2.79917 8.01698C0.706671 9.33761 2.47792 12.3751 4.68417 11.3357C4.7801 11.2796 4.88927 11.25 5.00042 11.2501Z" fill="#32302C"/>
</g>
<defs>
<clipPath id="clip0_1230_781">
<rect width="15" height="15" fill="white"/>
</clipPath>
</defs>
</svg>
