<svg width="15" height="15" viewBox="0 0 15 15" fill="none" xmlns="http://www.w3.org/2000/svg">
<g clip-path="url(#clip0_1228_773)">
<path d="M15 11.25V11.875C14.999 12.7035 14.6694 13.4978 14.0836 14.0836C13.4978 14.6694 12.7035 14.999 11.875 15H11.25C11.0842 15 10.9253 14.9342 10.8081 14.8169C10.6908 14.6997 10.625 14.5408 10.625 14.375C10.625 14.2092 10.6908 14.0503 10.8081 13.9331C10.9253 13.8158 11.0842 13.75 11.25 13.75H11.875C12.3723 13.75 12.8492 13.5525 13.2008 13.2008C13.5525 12.8492 13.75 12.3723 13.75 11.875V11.25C13.75 11.0842 13.8158 10.9253 13.9331 10.8081C14.0503 10.6908 14.2092 10.625 14.375 10.625C14.5408 10.625 14.6997 10.6908 14.8169 10.8081C14.9342 10.9253 15 11.0842 15 11.25ZM11.875 0H11.25C11.0842 0 10.9253 0.065848 10.8081 0.183058C10.6908 0.300269 10.625 0.45924 10.625 0.625C10.625 0.79076 10.6908 0.949732 10.8081 1.06694C10.9253 1.18415 11.0842 1.25 11.25 1.25H11.875C12.3723 1.25 12.8492 1.44754 13.2008 1.79917C13.5525 2.15081 13.75 2.62772 13.75 3.125V3.75C13.75 3.91576 13.8158 4.07473 13.9331 4.19194C14.0503 4.30915 14.2092 4.375 14.375 4.375C14.5408 4.375 14.6997 4.30915 14.8169 4.19194C14.9342 4.07473 15 3.91576 15 3.75V3.125C14.999 2.2965 14.6694 1.50222 14.0836 0.916387C13.4978 0.330551 12.7035 0.000992411 11.875 0V0ZM14.375 5.625C14.2092 5.625 14.0503 5.69085 13.9331 5.80806C13.8158 5.92527 13.75 6.08424 13.75 6.25V8.75C13.75 8.91576 13.8158 9.07473 13.9331 9.19194C14.0503 9.30915 14.2092 9.375 14.375 9.375C14.5408 9.375 14.6997 9.30915 14.8169 9.19194C14.9342 9.07473 15 8.91576 15 8.75V6.25C15 6.08424 14.9342 5.92527 14.8169 5.80806C14.6997 5.69085 14.5408 5.625 14.375 5.625ZM3.75 13.75H3.125C2.62772 13.75 2.15081 13.5525 1.79917 13.2008C1.44754 12.8492 1.25 12.3723 1.25 11.875V11.25C1.25 11.0842 1.18415 10.9253 1.06694 10.8081C0.949732 10.6908 0.79076 10.625 0.625 10.625C0.45924 10.625 0.300269 10.6908 0.183058 10.8081C0.065848 10.9253 0 11.0842 0 11.25L0 11.875C0.000992411 12.7035 0.330551 13.4978 0.916387 14.0836C1.50222 14.6694 2.2965 14.999 3.125 15H3.75C3.91576 15 4.07473 14.9342 4.19194 14.8169C4.30915 14.6997 4.375 14.5408 4.375 14.375C4.375 14.2092 4.30915 14.0503 4.19194 13.9331C4.07473 13.8158 3.91576 13.75 3.75 13.75ZM3.75 0H3.125C2.2965 0.000992411 1.50222 0.330551 0.916387 0.916387C0.330551 1.50222 0.000992411 2.2965 0 3.125L0 3.75C0 3.91576 0.065848 4.07473 0.183058 4.19194C0.300269 4.30915 0.45924 4.375 0.625 4.375C0.79076 4.375 0.949732 4.30915 1.06694 4.19194C1.18415 4.07473 1.25 3.91576 1.25 3.75V3.125C1.25 2.62772 1.44754 2.15081 1.79917 1.79917C2.15081 1.44754 2.62772 1.25 3.125 1.25H3.75C3.91576 1.25 4.07473 1.18415 4.19194 1.06694C4.30915 0.949732 4.375 0.79076 4.375 0.625C4.375 0.45924 4.30915 0.300269 4.19194 0.183058C4.07473 0.065848 3.91576 0 3.75 0V0ZM0.625 9.375C0.79076 9.375 0.949732 9.30915 1.06694 9.19194C1.18415 9.07473 1.25 8.91576 1.25 8.75V6.25C1.25 6.08424 1.18415 5.92527 1.06694 5.80806C0.949732 5.69085 0.79076 5.625 0.625 5.625C0.45924 5.625 0.300269 5.69085 0.183058 5.80806C0.065848 5.92527 0 6.08424 0 6.25L0 8.75C0 8.91576 0.065848 9.07473 0.183058 9.19194C0.300269 9.30915 0.45924 9.375 0.625 9.375ZM6.25 1.25H8.7075C8.87326 1.25 9.03223 1.18415 9.14944 1.06694C9.26665 0.949732 9.3325 0.79076 9.3325 0.625C9.3325 0.45924 9.26665 0.300269 9.14944 0.183058C9.03223 0.065848 8.87326 0 8.7075 0L6.25 0C6.08424 0 5.92527 0.065848 5.80806 0.183058C5.69085 0.300269 5.625 0.45924 5.625 0.625C5.625 0.79076 5.69085 0.949732 5.80806 1.06694C5.92527 1.18415 6.08424 1.25 6.25 1.25V1.25ZM8.75 13.75H6.25C6.08424 13.75 5.92527 13.8158 5.80806 13.9331C5.69085 14.0503 5.625 14.2092 5.625 14.375C5.625 14.5408 5.69085 14.6997 5.80806 14.8169C5.92527 14.9342 6.08424 15 6.25 15H8.75C8.91576 15 9.07473 14.9342 9.19194 14.8169C9.30915 14.6997 9.375 14.5408 9.375 14.375C9.375 14.2092 9.30915 14.0503 9.19194 13.9331C9.07473 13.8158 8.91576 13.75 8.75 13.75Z" fill="#32302C"/>
</g>
<defs>
<clipPath id="clip0_1228_773">
<rect width="15" height="15" fill="white"/>
</clipPath>
</defs>
</svg>
