<svg width="15" height="15" viewBox="0 0 15 15" fill="none" xmlns="http://www.w3.org/2000/svg">
<g clip-path="url(#clip0_1529_987)">
<path d="M11.2213 6.66438C11.631 6.00241 11.8564 5.24291 11.8739 4.46456C11.8914 3.68622 11.7005 2.91734 11.321 2.23759C10.9414 1.55784 10.387 0.991936 9.71516 0.598512C9.04334 0.205087 8.27854 -0.00154991 7.5 8.7529e-06H3.125C2.79348 8.7529e-06 2.47554 0.131705 2.24112 0.366125C2.0067 0.600546 1.875 0.918488 1.875 1.25001V13.75C1.875 14.0815 2.0067 14.3995 2.24112 14.6339C2.47554 14.8683 2.79348 15 3.125 15H9.375C10.3709 15.0011 11.3373 14.662 12.1142 14.039C12.8912 13.416 13.4321 12.5464 13.6475 11.574C13.8628 10.6017 13.7397 9.585 13.2985 8.69218C12.8573 7.79935 12.1244 7.08395 11.2213 6.66438V6.66438ZM4.375 2.50001H7.5C7.99728 2.50001 8.47419 2.69755 8.82583 3.04918C9.17746 3.40081 9.375 3.87773 9.375 4.37501C9.375 4.87229 9.17746 5.3492 8.82583 5.70083C8.47419 6.05247 7.99728 6.25001 7.5 6.25001H4.375V2.50001ZM9.375 12.5H4.375V8.75001H9.375C9.87228 8.75001 10.3492 8.94755 10.7008 9.29918C11.0525 9.65081 11.25 10.1277 11.25 10.625C11.25 11.1223 11.0525 11.5992 10.7008 11.9508C10.3492 12.3025 9.87228 12.5 9.375 12.5V12.5Z" fill="#32302C"/>
</g>
<defs>
<clipPath id="clip0_1529_987">
<rect width="15" height="15" fill="white"/>
</clipPath>
</defs>
</svg>
