<svg width="15" height="15" viewBox="0 0 15 15" fill="none" xmlns="http://www.w3.org/2000/svg">
<path d="M7.03516 11.8779C6.8112 11.6488 6.69922 11.3519 6.69922 10.9873C6.69922 10.6227 6.8112 10.3258 7.03516 10.0967C7.26432 9.86751 7.5612 9.75293 7.92578 9.75293C8.28516 9.75293 8.57682 9.86751 8.80078 10.0967C9.02474 10.3258 9.13672 10.6227 9.13672 10.9873C9.13672 11.3519 9.02474 11.6488 8.80078 11.8779C8.57682 12.1071 8.28516 12.2217 7.92578 12.2217C7.5612 12.2217 7.26432 12.1071 7.03516 11.8779ZM7.03516 5.9248C6.8112 5.69564 6.69922 5.39876 6.69922 5.03418C6.69922 4.6696 6.8112 4.37272 7.03516 4.14355C7.26432 3.91439 7.5612 3.7998 7.92578 3.7998C8.28516 3.7998 8.57682 3.91439 8.80078 4.14355C9.02474 4.37272 9.13672 4.6696 9.13672 5.03418C9.13672 5.39876 9.02474 5.69564 8.80078 5.9248C8.57682 6.15397 8.28516 6.26855 7.92578 6.26855C7.5612 6.26855 7.26432 6.15397 7.03516 5.9248Z" fill="#32302C"/>
</svg>
